<svg width="43" height="52" viewBox="0 0 43 52" fill="none" xmlns="http://www.w3.org/2000/svg">
<g clip-path="url(#clip0_67_9874)">
<path d="M24.0398 8.19141V0.878906H0.356445V51.1201H24.0398V43.8076C19.1882 43.8076 14.5353 41.9313 11.1049 38.5916C7.67431 35.252 5.74706 30.7225 5.74706 25.9995C5.74706 21.2765 7.67431 16.7469 11.1049 13.4073C14.5353 10.0676 19.1882 8.19141 24.0398 8.19141Z" fill="#2355D3"/>
<path d="M24.04 8.19141V43.8076C28.8916 43.8076 33.5445 41.9313 36.975 38.5916C40.4056 35.252 42.3328 30.7225 42.3328 25.9995C42.3328 21.2765 40.4056 16.7469 36.975 13.4073C33.5445 10.0676 28.8916 8.19141 24.04 8.19141Z" fill="#2355D3"/>
</g>
<defs>
<clipPath id="clip0_67_9874">
<rect width="42.4667" height="52" fill="white"/>
</clipPath>
</defs>
</svg>
